HIERARCHY
ROOT Hips
{
	OFFSET 0 0 0
	CHANNELS 6 Xposition Yposition Zposition Yrotation Xrotation Zrotation
	JOINT Spine
	{
		OFFSET -0 8.58062 -2.73507
		CHANNELS 3 Yrotation Xrotation Zrotation
		JOINT Spine1
		{
			OFFSET -0 10.8178 0
			CHANNELS 3 Yrotation Xrotation Zrotation
			JOINT Spine2
			{
				OFFSET -0 10.8178 0
				CHANNELS 3 Yrotation Xrotation Zrotation
				JOINT Spine3
				{
					OFFSET -0 10.8178 0
					CHANNELS 3 Yrotation Xrotation Zrotation
					JOINT Neck
					{
						OFFSET -0 11.6588 3.73507
						CHANNELS 3 Yrotation Xrotation Zrotation
						JOINT Head
						{
							OFFSET -0 10.7258 0
							CHANNELS 3 Yrotation Xrotation Zrotation
							End Site
							{
								OFFSET 0 15 0
							}
						}
					}
					JOINT LeftShoulder
					{
						OFFSET 1.78763 1.10006 3.57526
						CHANNELS 3 Yrotation Xrotation Zrotation
						JOINT LeftArm
						{
							OFFSET 15.6691 0 0
							CHANNELS 3 Yrotation Xrotation Zrotation
							JOINT LeftForeArm
							{
								OFFSET 29.1935 0 0
								CHANNELS 3 Yrotation Xrotation Zrotation
								JOINT LeftHand
								{
									OFFSET 21.5798 0 0
									CHANNELS 3 Yrotation Xrotation Zrotation
									End Site
									{
										OFFSET 15 0 0
									}
								}
							}
						}
					}
					JOINT RightShoulder
					{
						OFFSET -1.78763 1.10006 3.57526
						CHANNELS 3 Yrotation Xrotation Zrotation
						JOINT RightArm
						{
							OFFSET -15.6691 0 0
							CHANNELS 3 Yrotation Xrotation Zrotation
							JOINT RightForeArm
							{
								OFFSET -29.1935 0 0
								CHANNELS 3 Yrotation Xrotation Zrotation
								JOINT RightHand
								{
									OFFSET -21.5798 0 0
									CHANNELS 3 Yrotation Xrotation Zrotation
									End Site
									{
										OFFSET -15 0 0
									}
								}
							}
						}
					}
				}
			}
		}
	}
	JOINT LeftUpLeg
	{
		OFFSET 10.7258 -3.57526 2
		CHANNELS 3 Yrotation Xrotation Zrotation
		JOINT LeftLeg
		{
			OFFSET -0 -40.1684 2.50268
			CHANNELS 3 Yrotation Xrotation Zrotation
			JOINT LeftFoot
			{
				OFFSET -0 -43.7906 -2.50268
				CHANNELS 3 Yrotation Xrotation Zrotation
				JOINT LeftToeBase
				{
					OFFSET -0 -6.90203 16.0887
					CHANNELS 3 Yrotation Xrotation Zrotation
					End Site
					{
						OFFSET 0 0 5
					}
				}
			}
		}
	}
	JOINT RightUpLeg
	{
		OFFSET -10.7258 -3.57526 2
		CHANNELS 3 Yrotation Xrotation Zrotation
		JOINT RightLeg
		{
			OFFSET -0 -40.1684 2.50268
			CHANNELS 3 Yrotation Xrotation Zrotation
			JOINT RightFoot
			{
				OFFSET -0 -43.7906 -2.50268
				CHANNELS 3 Yrotation Xrotation Zrotation
				JOINT RightToeBase
				{
					OFFSET -0 -6.90203 16.0887
					CHANNELS 3 Yrotation Xrotation Zrotation
					End Site
					{
						OFFSET 0 0 5
					}
				}
			}
		}
	}
}
MOTION
Frames: 8
Frame Time: 0.00833333
-95.772144 95.931476 37.517142 -0.807712 -1.229426 2.241894 -1.863121 6.630952 1.154020 -1.184924 5.475153 0.885517 -0.421460 3.393348 0.663180 -0.271448 1.841121 -1.367777 25.950494 5.914437 2.408645 11.315116 -13.372461 3.954720 4.740251 -3.134181 7.710650 -8.995112 2.734190 -58.373583 -97.758846 18.163433 41.298942 -23.261346 -74.197033 0.163377 -9.254119 1.607793 -4.985340 57.064627 -0.505556 71.874988 70.928400 33.889580 -4.847453 -10.936188 21.396622 -2.035534 7.982638 -5.110111 -6.307108 0.000000 17.122362 0.000000 -3.288735 -0.800721 1.923759 0.000000 -10.563418 0.000000 7.466402 -47.249050 -1.456546 0.000000 84.651281 0.000000 -9.135069 -7.093877 -6.804812 0.000000 0.264185 0.000000
-95.686835 96.137262 38.696341 -0.676870 -1.282085 2.205986 -2.026794 6.219989 1.340072 -1.166713 5.443155 1.108077 -0.371412 3.301858 0.811186 -0.227962 1.988668 -1.460894 26.310379 6.391772 2.231794 11.455438 -13.252362 4.254807 4.660713 -3.272651 7.650167 -9.181974 2.981032 -58.018002 -95.912353 16.232007 43.278024 -25.030083 -74.500659 2.299082 -9.210587 1.458008 -5.248134 57.005957 -0.619040 72.249496 70.610243 33.909307 -4.919638 -10.917167 21.562394 -1.341847 7.566100 -3.627460 -6.249252 0.000000 15.824413 0.000000 -3.118569 -0.788610 1.843444 0.000000 -10.493277 0.000000 7.784911 -46.295535 -1.995427 0.000000 79.924656 0.000000 -8.632282 -7.064569 -6.377365 0.000000 0.152929 0.000000
-95.592432 96.322308 39.894595 -0.422697 -1.279274 2.210709 -2.173961 5.813034 1.639936 -1.199549 5.251594 1.207348 -0.383345 3.283959 0.786555 -0.273134 1.923589 -1.368842 26.710704 7.012092 2.208751 11.646315 -12.994171 4.387535 4.533278 -3.115261 7.551105 -8.798418 2.826408 -57.639533 -93.450938 14.411669 44.920432 -26.516684 -75.503466 2.675230 -9.326484 1.631628 -5.419429 57.403259 -0.696950 72.201975 69.950827 33.861603 -5.241312 -10.769218 21.432719 -0.494298 6.968865 -2.267370 -6.289872 0.000000 14.538053 0.000000 -2.612035 -0.549733 1.975596 0.000000 -10.757805 0.000000 8.065866 -45.132684 -2.646323 0.000000 74.900323 0.000000 -8.119091 -7.082058 -5.336824 0.000000 0.089688 0.000000
-95.527917 96.452161 41.092191 -0.310930 -1.256103 2.380210 -2.219278 5.377715 1.653683 -1.146678 5.045357 1.235602 -0.406650 3.198412 0.845457 -0.298494 2.073255 -1.275372 27.019825 7.476113 2.418108 11.827216 -12.795962 4.191599 4.491351 -3.084809 7.578829 -9.057293 2.902439 -57.192513 -91.094780 12.449693 46.580782 -27.373348 -76.126062 3.007962 -9.273465 1.624735 -5.479838 57.343790 -0.703975 72.238292 69.554266 33.442949 -5.203319 -10.539811 21.573972 0.348116 6.562449 -0.833591 -6.469011 0.000000 13.242781 0.000000 -2.565097 -0.351565 2.014082 0.000000 -10.377045 0.000000 8.570515 -43.840427 -3.416818 0.000000 69.637254 0.000000 -7.457811 -7.002868 -4.539445 0.000000 0.127488 0.000000
-95.437329 96.544397 42.319809 -0.158378 -1.254656 2.583288 -2.317917 4.933413 1.679659 -1.182371 4.820883 1.239720 -0.433242 3.174790 0.834993 -0.340309 2.114620 -1.079558 27.456717 8.041015 2.492309 12.050339 -12.690761 4.119972 4.530554 -2.997023 7.550193 -9.303656 3.015444 -56.693437 -88.403276 10.357545 48.167616 -27.592967 -76.690528 1.691189 -9.250501 1.781757 -5.533293 57.468065 -0.731999 71.958486 69.031547 32.960674 -5.012583 -10.522170 21.033414 1.019766 6.129700 0.561053 -6.689176 0.000000 12.090897 0.000000 -2.337200 -0.459988 1.695341 0.000000 -10.126457 0.000000 8.863009 -42.362484 -4.130038 0.000000 64.184524 0.000000 -6.743668 -6.699130 -4.359077 0.000000 -0.026550 0.000000
-95.381073 96.602496 43.552585 -0.007538 -1.264281 2.797204 -2.366568 4.461331 1.587193 -1.174688 4.645836 1.241527 -0.450387 3.111978 0.952795 -0.352445 2.222274 -0.814354 27.723437 8.594111 2.480818 12.189725 -12.549055 4.062706 4.551410 -2.746860 7.293856 -10.465341 3.513205 -55.990413 -86.346441 7.701268 50.259194 -27.412621 -76.830560 0.970870 -9.193214 1.923667 -5.624407 57.269359 -0.727513 71.629686 68.612199 32.374801 -4.745710 -10.067475 20.612336 2.133145 5.995865 2.096003 -6.880919 0.000000 10.809130 0.000000 -2.350091 -0.624509 1.557878 0.000000 -9.617302 0.000000 9.004789 -40.624639 -4.697206 0.000000 58.388886 0.000000 -6.335052 -6.348224 -3.939521 0.000000 0.381992 0.000000
-95.313080 96.594617 44.810840 0.185498 -1.263122 3.152908 -2.419921 3.990995 1.322537 -1.190771 4.402490 1.213853 -0.530498 3.131357 1.167382 -0.390483 2.296595 -0.743215 28.062761 8.856032 2.597805 12.358077 -12.200004 3.939934 4.486885 -2.721683 7.331581 -10.472214 3.583268 -55.381415 -83.858684 5.683173 51.048085 -27.794811 -77.503085 0.967391 -9.140340 2.027601 -5.501951 57.189851 -0.656329 71.277830 68.124747 31.739948 -4.430632 -9.880645 19.871033 2.888816 5.727608 3.603562 -7.240552 0.000000 9.537165 0.000000 -2.233167 -0.700904 1.480840 0.000000 -9.401789 0.000000 9.206603 -38.727887 -5.443192 0.000000 52.324567 0.000000 -6.070703 -5.401506 -3.382072 0.000000 0.139474 0.000000
-95.249774 96.549493 46.081784 0.412879 -1.415992 3.493436 -2.465302 3.702531 1.033450 -1.268739 4.164134 1.190093 -0.567268 3.076311 1.422176 -0.376644 2.419240 -0.642574 28.308193 9.148213 2.648574 12.480032 -11.943831 3.861102 4.580011 -2.715421 7.265800 -10.990211 3.684491 -54.604900 -81.651461 3.341092 51.675930 -27.619913 -77.449839 0.918081 -9.185502 2.120179 -5.439833 57.061563 -0.655511 70.803979 67.603971 31.117915 -3.952970 -9.594896 19.194879 3.934050 5.606525 5.326156 -7.570621 0.000000 8.190848 0.000000 -2.403600 -0.620966 1.785233 0.000000 -9.376320 0.000000 9.250854 -36.479972 -6.080451 0.000000 46.049584 0.000000 -6.001148 -4.177113 -2.297281 0.000000 0.553478 0.000000
